<?xml version="1.0" standalone="no"?>
<!DOCTYPE svg PUBLIC "-//W3C//DTD SVG 20010904//EN"
 "http://www.w3.org/TR/2001/REC-SVG-20010904/DTD/svg10.dtd">
<svg version="1.0" xmlns="http://www.w3.org/2000/svg"
 width="200.000000pt" height="200.000000pt" viewBox="0 0 200.000000 200.000000"
 preserveAspectRatio="xMidYMid meet">

<g transform="translate(0.000000,200.000000) scale(0.100000,-0.100000)"
fill="#000000" stroke="none">
<path d="M898 1733 c7 -3 16 -2 19 1 4 3 -2 6 -13 5 -11 0 -14 -3 -6 -6z"/>
<path d="M1088 1733 c7 -3 16 -2 19 1 4 3 -2 6 -13 5 -11 0 -14 -3 -6 -6z"/>
<path d="M906 1720 c-157 -19 -295 -88 -417 -210 -74 -73 -94 -101 -136 -188
-28 -56 -52 -100 -54 -98 -2 3 -4 -8 -5 -22 0 -15 -6 -66 -13 -115 -30 -222
43 -431 209 -598 71 -71 101 -93 180 -132 125 -62 200 -80 330 -80 129 0 205
18 326 78 96 47 205 137 258 214 16 22 33 38 39 34 5 -3 7 -1 4 4 -4 6 9 44
28 85 50 106 68 186 68 308 0 130 -18 205 -80 330 -38 79 -61 110 -132 181
-71 71 -102 94 -181 132 -143 71 -274 94 -424 77z m147 -372 c9 -11 17 -27 17
-36 0 -18 -9 -11 -24 20 -9 18 -20 23 -51 23 -32 0 -42 -5 -54 -27 -14 -25
-14 -29 5 -55 12 -15 31 -29 43 -31 16 -3 21 -10 21 -33 0 -16 -5 -29 -12 -30
-7 0 -110 -62 -228 -137 -185 -118 -215 -141 -215 -162 l0 -25 450 0 450 0 0
24 c0 21 -29 43 -195 148 -107 68 -197 128 -199 134 -3 11 15 0 249 -149 134
-86 155 -103 158 -128 7 -54 7 -54 -470 -54 l-438 0 -17 26 c-12 19 -14 31 -7
43 6 9 111 80 235 159 212 135 257 172 210 172 -23 0 -61 44 -61 72 0 70 87
100 133 46z"/>
<path d="M262 1100 c0 -14 2 -19 5 -12 2 6 2 18 0 25 -3 6 -5 1 -5 -13z"/>
<path d="M1732 1100 c0 -14 2 -19 5 -12 2 6 2 18 0 25 -3 6 -5 1 -5 -13z"/>
<path d="M262 895 c0 -16 2 -22 5 -12 2 9 2 23 0 30 -3 6 -5 -1 -5 -18z"/>
<path d="M1732 900 c0 -14 2 -19 5 -12 2 6 2 18 0 25 -3 6 -5 1 -5 -13z"/>
<path d="M310 716 c0 -11 40 -86 45 -86 3 0 -4 19 -16 43 -23 45 -29 54 -29
43z"/>
<path d="M390 566 c0 -2 8 -10 18 -17 15 -13 16 -12 3 4 -13 16 -21 21 -21 13z"/>
<path d="M470 478 c41 -45 50 -53 50 -45 0 2 -21 23 -47 47 l-48 45 45 -47z"/>
<path d="M1514 468 l-19 -23 23 19 c21 18 27 26 19 26 -2 0 -12 -10 -23 -22z"/>
<path d="M630 355 c0 -7 81 -47 86 -43 2 3 -17 14 -41 26 -25 12 -45 20 -45
17z"/>
<path d="M1330 340 c-19 -11 -31 -19 -27 -20 11 0 67 29 67 35 0 7 -1 7 -40
-15z"/>
<path d="M759 294 c18 -8 47 -17 65 -20 17 -2 4 4 -29 16 -70 23 -84 25 -36 4z"/>
<path d="M1220 295 c-19 -7 -28 -14 -20 -14 8 0 29 6 45 14 39 17 21 18 -25 0z"/>
<path d="M1158 273 c7 -3 16 -2 19 1 4 3 -2 6 -13 5 -11 0 -14 -3 -6 -6z"/>
<path d="M888 263 c6 -2 18 -2 25 0 6 3 1 5 -13 5 -14 0 -19 -2 -12 -5z"/>
<path d="M1093 263 c9 -2 23 -2 30 0 6 3 -1 5 -18 5 -16 0 -22 -2 -12 -5z"/>
<path d="M993 253 c9 -2 23 -2 30 0 6 3 -1 5 -18 5 -16 0 -22 -2 -12 -5z"/>
</g>
</svg>
